<svg xmlns="http://www.w3.org/2000/svg" xmlns:xlink="http://www.w3.org/1999/xlink" width="500" zoomAndPan="magnify" viewBox="0 0 375 374.999991" height="500" preserveAspectRatio="xMidYMid meet" version="1.0"><defs><g/><clipPath id="374e857155"><path d="M 118 137 L 212 137 L 212 174.75 L 118 174.75 Z M 118 137 " clip-rule="nonzero"/></clipPath><clipPath id="25c03fa527"><path d="M 153 117.75 L 179 117.75 L 179 143 L 153 143 Z M 153 117.75 " clip-rule="nonzero"/></clipPath><clipPath id="d64a0d909b"><path d="M 118.558594 227.625 L 210.808594 227.625 L 210.808594 231.375 L 118.558594 231.375 Z M 118.558594 227.625 " clip-rule="nonzero"/></clipPath></defs><rect x="-37.5" width="450" fill="#ffffff" y="-37.499999" height="449.999989" fill-opacity="1"/><rect x="-37.5" width="450" fill="#ffffff" y="-37.499999" height="449.999989" fill-opacity="1"/><rect x="-37.5" width="450" fill="#ffffff" y="-37.499999" height="449.999989" fill-opacity="1"/><g fill="#ff914d" fill-opacity="1"><g transform="translate(61.90775, 222.024595)"><g><path d="M 40 -34.859375 L 25.796875 -34.859375 L 25.796875 -30.066406 C 23.792969 -33.640625 20.742188 -35.558594 16.90625 -35.558594 C 7.40625 -35.558594 2.089844 -29.019531 2.089844 -17.429688 C 2.089844 -5.925781 7.40625 0.695312 16.90625 0.695312 C 20.742188 0.695312 23.792969 -1.308594 25.796875 -4.878906 L 25.796875 0 L 40 0 Z M 21.003906 -10.71875 C 17.777344 -10.71875 16.035156 -13.160156 16.035156 -17.429688 C 16.035156 -21.789062 17.777344 -24.226562 21.003906 -24.226562 C 24.140625 -24.226562 25.796875 -21.789062 25.796875 -17.429688 C 25.796875 -13.160156 24.140625 -10.71875 21.003906 -10.71875 Z M 21.003906 -10.71875 "/></g></g></g><g fill="#ff914d" fill-opacity="1"><g transform="translate(107.559399, 222.024595)"><g><path d="M 21.875 -43.574219 L 10.71875 -43.574219 L 0.871094 -37.472656 L 4.097656 -27.625 L 7.667969 -29.28125 L 7.667969 0 L 21.875 0 Z M 21.875 -43.574219 "/></g></g></g><g fill="#ff914d" fill-opacity="1"><g transform="translate(135.086504, 222.024595)"><g><path d="M 20.21875 0.695312 C 31.722656 0.695312 38.171875 -7.496094 38.171875 -21.789062 C 38.171875 -36.167969 31.722656 -44.273438 20.21875 -44.273438 C 8.800781 -44.273438 2.351562 -36.167969 2.351562 -21.789062 C 2.351562 -7.496094 8.800781 0.695312 20.21875 0.695312 Z M 20.304688 -10.285156 C 17.777344 -10.285156 16.296875 -14.378906 16.210938 -21.789062 C 16.296875 -29.195312 17.777344 -33.378906 20.304688 -33.378906 C 22.746094 -33.378906 24.226562 -29.195312 24.226562 -21.789062 C 24.226562 -14.378906 22.746094 -10.285156 20.304688 -10.285156 Z M 20.304688 -10.285156 "/></g></g></g><g fill="#ff914d" fill-opacity="1"><g transform="translate(178.385457, 222.024595)"><g><path d="M 20.21875 0.695312 C 31.722656 0.695312 38.171875 -7.496094 38.171875 -21.789062 C 38.171875 -36.167969 31.722656 -44.273438 20.21875 -44.273438 C 8.800781 -44.273438 2.351562 -36.167969 2.351562 -21.789062 C 2.351562 -7.496094 8.800781 0.695312 20.21875 0.695312 Z M 20.304688 -10.285156 C 17.777344 -10.285156 16.296875 -14.378906 16.210938 -21.789062 C 16.296875 -29.195312 17.777344 -33.378906 20.304688 -33.378906 C 22.746094 -33.378906 24.226562 -29.195312 24.226562 -21.789062 C 24.226562 -14.378906 22.746094 -10.285156 20.304688 -10.285156 Z M 20.304688 -10.285156 "/></g></g></g><g fill="#ff914d" fill-opacity="1"><g transform="translate(221.684404, 222.024595)"><g><path d="M 36.253906 -10.457031 C 35.820312 -3.398438 29.632812 0.695312 19.085938 0.695312 C 8.714844 0.695312 2.875 -4.707031 2.875 -14.378906 L 2.875 -42.269531 L 16.996094 -42.269531 L 16.996094 -32.332031 L 24.140625 -32.332031 L 24.140625 -21.875 L 16.996094 -21.875 L 16.996094 -16.996094 C 16.996094 -12.984375 18.738281 -10.71875 21.699219 -10.71875 C 24.140625 -10.71875 25.621094 -12.199219 25.796875 -14.726562 Z M 36.253906 -10.457031 "/></g></g></g><g fill="#ff914d" fill-opacity="1"><g transform="translate(262.107818, 222.024595)"><g><path d="M 21.003906 0.695312 C 33.117188 0.695312 40 -5.925781 40 -17.429688 C 40 -29.019531 33.117188 -35.558594 21.003906 -35.558594 C 8.890625 -35.558594 2.089844 -29.019531 2.089844 -17.429688 C 2.089844 -5.925781 8.890625 0.695312 21.003906 0.695312 Z M 21.003906 -10.71875 C 17.777344 -10.71875 16.035156 -13.160156 16.035156 -17.429688 C 16.035156 -21.789062 17.777344 -24.226562 21.003906 -24.226562 C 24.226562 -24.226562 26.058594 -21.789062 26.058594 -17.429688 C 26.058594 -13.160156 24.226562 -10.71875 21.003906 -10.71875 Z M 21.003906 -10.71875 "/></g></g></g><g clip-path="url(#374e857155)"><path fill="#ff914d" d="M 209.15625 181.472656 L 121.292969 181.472656 C 119.910156 181.472656 118.789062 180.351562 118.789062 178.96875 C 118.789062 155.839844 139.621094 137.023438 165.226562 137.023438 C 190.832031 137.023438 211.660156 155.839844 211.660156 178.96875 C 211.660156 180.351562 210.539062 181.472656 209.15625 181.472656 Z M 123.890625 176.464844 L 206.558594 176.464844 C 205.109375 157.261719 187.125 142.03125 165.226562 142.03125 C 143.324219 142.03125 125.339844 157.261719 123.890625 176.464844 Z M 123.890625 176.464844 " fill-opacity="1" fill-rule="nonzero"/></g><g clip-path="url(#25c03fa527)"><path fill="#ff914d" d="M 166.0625 142.03125 C 159.359375 142.03125 153.90625 136.582031 153.90625 129.878906 C 153.90625 123.175781 159.359375 117.722656 166.0625 117.722656 C 172.765625 117.722656 178.222656 123.175781 178.222656 129.878906 C 178.222656 136.582031 172.765625 142.03125 166.0625 142.03125 Z M 166.0625 122.730469 C 162.121094 122.730469 158.914062 125.9375 158.914062 129.878906 C 158.914062 133.820312 162.121094 137.027344 166.0625 137.027344 C 170.007812 137.027344 173.214844 133.820312 173.214844 129.878906 C 173.214844 125.9375 170.007812 122.730469 166.0625 122.730469 Z M 166.0625 122.730469 " fill-opacity="1" fill-rule="nonzero"/></g><path fill="#ff914d" d="M 131.652344 171.613281 C 131.585938 171.613281 131.519531 171.613281 131.453125 171.605469 C 130.074219 171.496094 129.042969 170.289062 129.152344 168.910156 C 130.261719 154.917969 147.136719 147.800781 147.855469 147.5 C 149.128906 146.984375 150.589844 147.582031 151.121094 148.859375 C 151.652344 150.132812 151.042969 151.597656 149.769531 152.128906 C 149.621094 152.191406 135.011719 158.386719 134.148438 169.308594 C 134.042969 170.617188 132.945312 171.613281 131.652344 171.613281 Z M 131.652344 171.613281 " fill-opacity="1" fill-rule="nonzero"/><g clip-path="url(#d64a0d909b)"><path fill="#ff914d" d="M 118.558594 227.625 L 210.808594 227.625 L 210.808594 231.375 L 118.558594 231.375 L 118.558594 227.625 " fill-opacity="1" fill-rule="nonzero"/></g></svg>